<svg xmlns="http://www.w3.org/2000/svg" viewBox="-14 -14 124 124" fill="none">
<defs>
<linearGradient id="hair" x1="0" y1="0" x2="1" y2="1">
<stop offset="0" stop-color="#fff" stop-opacity=".18"></stop><stop offset="1" stop-color="#fff" stop-opacity=".05"></stop></linearGradient>
<radialGradient id="spark"><stop offset="0" stop-color="#A78BFA" stop-opacity=".55"></stop>
<stop offset=".45" stop-color="#8B5CF6" stop-opacity=".18"></stop><stop offset="1" stop-color="#8B5CF6" stop-opacity="0"></stop></radialGradient>
<radialGradient id="sparkTeal"><stop offset="0" stop-color="#2DD4BF" stop-opacity=".3"></stop>
<stop offset="1" stop-color="#2DD4BF" stop-opacity="0"></stop></radialGradient>
<filter id="soft" x="-300%" y="-300%" width="700%" height="700%"><feGaussianBlur stdDeviation="2.2"></feGaussianBlur></filter>
<filter id="wordglow" x="-40%" y="-60%" width="180%" height="220%">
<feGaussianBlur stdDeviation="4" result="b"></feGaussianBlur><feColorMatrix in="b" type="matrix" values="0 0 0 0 0.545  0 0 0 0 0.361  0 0 0 0 0.965  0 0 0 .85 0" result="g"></feColorMatrix>
<feMerge><feMergeNode in="g"></feMergeNode><feMergeNode in="g"></feMergeNode><feMergeNode in="SourceGraphic"></feMergeNode></feMerge></filter>
</defs>
<g>
<rect x="6.5" y="6.5" width="83" height="83" rx="25" fill="none" stroke="url(#hair)"></rect>
<circle cx="48" cy="38" r="24" fill="url(#spark)"></circle>
<circle cx="48" cy="19" r="13" fill="url(#sparkTeal)"></circle>
<g fill="none" stroke="#fff" stroke-opacity=".5" stroke-width="1" stroke-linecap="round"><path d="M15 45a11 8 0 0 0 22 0"></path><path d="M59 45a11 8 0 0 0 22 0"></path><path d="M26 41v4"></path><path d="M70 41v4"></path><path d="M34 70h28"></path><path d="M28 76h40"></path></g>
<g fill="none" stroke="#fff" stroke-opacity=".88" stroke-width="1.5" stroke-linecap="round"><path d="M26 38h44"></path><path d="M48 19v51"></path></g>
<g fill="none" stroke="#2DD4BF" stroke-opacity=".75" stroke-width="1" stroke-linecap="round"><path d="M48 27 37 19.5"></path><path d="M48 27 59 19.5"></path></g>
<g fill="#2DD4BF"><circle cx="36.4" cy="19" r="1.9"></circle><circle cx="59.6" cy="19" r="1.9"></circle></g>
<g fill="none" stroke="#fff" stroke-opacity=".55"><circle cx="26" cy="38" r="3.2"></circle><circle cx="70" cy="38" r="3.2"></circle></g>
<circle cx="48" cy="38" r="7.5" fill="none" stroke="#A78BFA" stroke-opacity=".7"></circle>
<circle cx="48" cy="38" r="3.4" fill="#C4B5FD" filter="url(#soft)"></circle>
<circle cx="48" cy="38" r="2.3" fill="#F5F3FF"></circle></g>
</svg>